<svg width="130" height="88" viewBox="0 0 130 88" fill="none" xmlns="http://www.w3.org/2000/svg">
<path d="M12.52 61.032L22.936 54.872C17.504 54.2 14.424 50.504 14.424 43.84V33.144H10V29.168H42.648V33.144H36.824V64H32.288V52.8L15.152 64.728L12.52 61.032ZM32.288 33.144H18.96V44.008C18.96 48.824 21.032 51.008 24.784 51.008C27.64 51.008 30.384 49.44 32.288 47.424V33.144ZM53.5308 33.144V50.896C53.5308 52.856 52.5228 54.032 50.8428 54.032C47.9308 54.032 44.1788 49.888 44.1788 46.752C44.1788 45.072 45.0748 43.896 47.5948 43.896H48.9948V33.144H41.8828V29.168H74.1948V33.144H68.4268V64H63.8908V33.144H53.5308ZM82.9575 33.144V64H78.4215V33.144H73.4375V29.168H77.9175C77.0215 27.488 76.4055 25.752 76.4055 23.512C76.4055 17.52 81.3335 13.824 88.9495 13.824C99.8135 13.824 108.55 20.432 113.87 29.56H109.278C103.902 21.832 97.0695 17.856 90.0695 17.856C84.3015 17.856 80.9415 20.096 80.9415 24.128C80.9415 26.312 81.7815 27.936 82.6775 29.168H88.7255V33.144H82.9575ZM114.866 33.144V64H110.33V45.632H102.546C97.8417 45.632 94.9857 47.088 94.9857 51.064C94.9857 54.704 97.3377 57.672 101.818 61.928L98.6257 64.784C93.3617 59.688 90.4497 55.488 90.4497 50.504C90.4497 44.456 94.8737 41.656 101.762 41.656H110.33V33.144H87.9297V29.168H120.634V33.144H114.866Z" fill="url(#paint0_linear_51_20)"/>
<defs>
<linearGradient id="paint0_linear_51_20" x1="37" y1="31" x2="93.5" y2="61.5" gradientUnits="userSpaceOnUse">
<stop stop-color="#7B39CB"/>
<stop offset="1" stop-color="#DF21CF"/>
</linearGradient>
</defs>
</svg>
